# xmcd CD database file
#
# Track frame offsets:
#	150
#	15874
#	34056
#	51511
#	69585
#	86559
#	104552
#	117772
#	134183
#	153190
#	170237
#	183256
#	207821
#	222950
#
# Disc length: 3523 seconds
#
# Revision: 0
# Processed by: cddbd v1.5.2PL0 Copyright (c) Steve Scherf et al.
# Submitted via: jetAudio 7
#
DISCID=c70dc10e
DTITLE=Gunter Gabriel - Sohn aus den Volk
DYEAR=1900
DGENRE=Country
TTITLE0=Titel 1
TTITLE1=Titel 2
TTITLE2=Titel 3
TTITLE3=Titel 4
TTITLE4=Titel 5
TTITLE5=Titel 6
TTITLE6=Titel 7
TTITLE7=Titel 8
TTITLE8=Titel 9
TTITLE9=Titel 10
TTITLE10=Titel 11
TTITLE11=Titel 12
TTITLE12=Titel 13
TTITLE13=Titel 14
EXTD=
EXTT0=
EXTT1=
EXTT2=
EXTT3=
EXTT4=
EXTT5=
EXTT6=
EXTT7=
EXTT8=
EXTT9=
EXTT10=
EXTT11=
EXTT12=
EXTT13=
PLAYORDER=
